<mxfile host="www.draw.io" modified="2020-03-06T04:48:31.567Z" agent="Mozilla/5.0 (Windows NT 10.0; WOW64) AppleWebKit/537.36 (KHTML, like Gecko) Chrome/70.0.3538.25 Safari/537.36 Core/1.70.3741.400 QQBrowser/10.5.3863.400" etag="oaz0IDuAHuNgouU2KG1Y" version="12.8.1" type="github">
  <diagram id="9RBZqvCqFz_unkaOPFMk" name="Page-1">
    <mxGraphModel dx="1761" dy="901" grid="1" gridSize="10" guides="1" tooltips="1" connect="1" arrows="1" fold="1" page="1" pageScale="1" pageWidth="827" pageHeight="1169" math="0" shadow="0">
      <root>
        <mxCell id="0" />
        <mxCell id="1" parent="0" />
        <mxCell id="V9usH_8_Al0czXvWs8Fq-20" style="edgeStyle=none;rounded=0;orthogonalLoop=1;jettySize=auto;html=1;entryX=0;entryY=0.5;entryDx=0;entryDy=0;" parent="1" source="V9usH_8_Al0czXvWs8Fq-2" target="V9usH_8_Al0czXvWs8Fq-11" edge="1">
          <mxGeometry relative="1" as="geometry">
            <Array as="points">
              <mxPoint x="360" y="360" />
            </Array>
          </mxGeometry>
        </mxCell>
        <mxCell id="V9usH_8_Al0czXvWs8Fq-21" style="edgeStyle=none;rounded=0;orthogonalLoop=1;jettySize=auto;html=1;entryX=0;entryY=0.5;entryDx=0;entryDy=0;" parent="1" source="V9usH_8_Al0czXvWs8Fq-2" target="V9usH_8_Al0czXvWs8Fq-12" edge="1">
          <mxGeometry relative="1" as="geometry">
            <Array as="points">
              <mxPoint x="360" y="360" />
            </Array>
          </mxGeometry>
        </mxCell>
        <mxCell id="V9usH_8_Al0czXvWs8Fq-23" style="edgeStyle=none;rounded=0;orthogonalLoop=1;jettySize=auto;html=1;exitX=1;exitY=0.5;exitDx=0;exitDy=0;entryX=0;entryY=0.5;entryDx=0;entryDy=0;" parent="1" source="V9usH_8_Al0czXvWs8Fq-2" target="V9usH_8_Al0czXvWs8Fq-13" edge="1">
          <mxGeometry relative="1" as="geometry" />
        </mxCell>
        <mxCell id="V9usH_8_Al0czXvWs8Fq-2" value="&lt;span style=&quot;font-size: 14.1176px ; white-space: normal&quot;&gt;select&amp;nbsp; max(id)&amp;nbsp; from t;&lt;/span&gt;&lt;br style=&quot;font-size: 14.1176px ; white-space: normal&quot;&gt;&lt;span style=&quot;font-size: 14.1176px ; white-space: normal&quot;&gt;id=(id+step-1)/step+mode&lt;/span&gt;&lt;br style=&quot;font-size: 14.1176px ; white-space: normal&quot;&gt;&lt;span style=&quot;font-size: 14.1176px ; white-space: normal&quot;&gt;setp=17,mode=1,mode&amp;lt;step&lt;/span&gt;" style="rounded=0;whiteSpace=wrap;html=1;" parent="1" vertex="1">
          <mxGeometry x="140" y="330" width="220" height="60" as="geometry" />
        </mxCell>
        <mxCell id="V9usH_8_Al0czXvWs8Fq-25" style="edgeStyle=none;rounded=0;orthogonalLoop=1;jettySize=auto;html=1;entryX=0;entryY=1;entryDx=0;entryDy=0;" parent="1" source="V9usH_8_Al0czXvWs8Fq-3" target="V9usH_8_Al0czXvWs8Fq-11" edge="1">
          <mxGeometry relative="1" as="geometry">
            <Array as="points">
              <mxPoint x="360" y="500" />
            </Array>
          </mxGeometry>
        </mxCell>
        <mxCell id="V9usH_8_Al0czXvWs8Fq-26" style="edgeStyle=none;rounded=0;orthogonalLoop=1;jettySize=auto;html=1;exitX=1;exitY=0.5;exitDx=0;exitDy=0;entryX=0;entryY=0.75;entryDx=0;entryDy=0;" parent="1" source="V9usH_8_Al0czXvWs8Fq-3" target="V9usH_8_Al0czXvWs8Fq-12" edge="1">
          <mxGeometry relative="1" as="geometry" />
        </mxCell>
        <mxCell id="V9usH_8_Al0czXvWs8Fq-27" style="edgeStyle=none;rounded=0;orthogonalLoop=1;jettySize=auto;html=1;exitX=1;exitY=0.5;exitDx=0;exitDy=0;entryX=0;entryY=0.75;entryDx=0;entryDy=0;" parent="1" source="V9usH_8_Al0czXvWs8Fq-3" target="V9usH_8_Al0czXvWs8Fq-13" edge="1">
          <mxGeometry relative="1" as="geometry" />
        </mxCell>
        <mxCell id="V9usH_8_Al0czXvWs8Fq-3" value="&lt;span style=&quot;font-size: 14.1176px ; white-space: normal&quot;&gt;select&amp;nbsp; max(id)&amp;nbsp; from t;&lt;/span&gt;&lt;br style=&quot;font-size: 14.1176px ; white-space: normal&quot;&gt;&lt;span style=&quot;font-size: 14.1176px ; white-space: normal&quot;&gt;id=(id+step-1)/step+mode&lt;/span&gt;&lt;br style=&quot;font-size: 14.1176px ; white-space: normal&quot;&gt;&lt;span style=&quot;font-size: 14.1176px ; white-space: normal&quot;&gt;setp=17,mode=2,mode&amp;lt;step&lt;/span&gt;" style="rounded=0;whiteSpace=wrap;html=1;" parent="1" vertex="1">
          <mxGeometry x="140" y="470" width="220" height="60" as="geometry" />
        </mxCell>
        <mxCell id="V9usH_8_Al0czXvWs8Fq-9" value="&lt;h1&gt;&lt;b&gt;Tspider&lt;/b&gt;&lt;/h1&gt;" style="text;html=1;strokeColor=none;fillColor=none;align=center;verticalAlign=middle;whiteSpace=wrap;rounded=0;" parent="1" vertex="1">
          <mxGeometry x="187.5" y="110" width="135" height="100" as="geometry" />
        </mxCell>
        <mxCell id="V9usH_8_Al0czXvWs8Fq-10" value="&lt;h1&gt;&lt;b&gt;MySQL&lt;/b&gt;&lt;/h1&gt;" style="text;html=1;strokeColor=none;fillColor=none;align=center;verticalAlign=middle;whiteSpace=wrap;rounded=0;" parent="1" vertex="1">
          <mxGeometry x="560" y="110" width="135" height="100" as="geometry" />
        </mxCell>
        <mxCell id="V9usH_8_Al0czXvWs8Fq-11" value="&lt;span style=&quot;font-size: 14.1176px ; white-space: normal&quot;&gt;select&amp;nbsp; max(id)&amp;nbsp; from t;&lt;/span&gt;&lt;br style=&quot;font-size: 14.1176px ; white-space: normal&quot;&gt;" style="rounded=0;whiteSpace=wrap;html=1;" parent="1" vertex="1">
          <mxGeometry x="520" y="260" width="230" height="60" as="geometry" />
        </mxCell>
        <mxCell id="V9usH_8_Al0czXvWs8Fq-12" value="&lt;span style=&quot;font-size: 14.1176px ; white-space: normal&quot;&gt;select&amp;nbsp; max(id)&amp;nbsp; from t;&lt;/span&gt;&lt;br style=&quot;font-size: 14.1176px ; white-space: normal&quot;&gt;" style="rounded=0;whiteSpace=wrap;html=1;" parent="1" vertex="1">
          <mxGeometry x="520" y="400" width="230" height="60" as="geometry" />
        </mxCell>
        <mxCell id="V9usH_8_Al0czXvWs8Fq-13" value="&lt;span style=&quot;font-size: 14.1176px ; white-space: normal&quot;&gt;select&amp;nbsp; max(id)&amp;nbsp; from t;&lt;/span&gt;&lt;br style=&quot;font-size: 14.1176px ; white-space: normal&quot;&gt;" style="rounded=0;whiteSpace=wrap;html=1;" parent="1" vertex="1">
          <mxGeometry x="520" y="525" width="230" height="60" as="geometry" />
        </mxCell>
      </root>
    </mxGraphModel>
  </diagram>
</mxfile>
